<svg width="129" height="140" viewBox="0 0 129 140" fill="none" xmlns="http://www.w3.org/2000/svg">
<path d="M64.6647 77.6568L76.4891 139.938L39.0775 134.591L64.6647 77.6568Z" fill="white"/>
<path d="M71.2208 76.6443L117.399 114.125L86.2362 138.011L71.2208 76.6443Z" fill="white"/>
<path d="M72.255 72.7574L128.789 63.3856L121.662 104.738L72.255 72.7574Z" fill="white"/>
<path d="M73.7868 68.9229L107.487 17.5526L128.943 52.2362L73.7868 68.9229Z" fill="white"/>
<path d="M67.0209 64.5904L63.4732 1.11218L99.8895 12.5571L67.0209 64.5904Z" fill="white"/>
<path d="M61.1741 62.8448L18.6721 20.3186L51.862 0.09375L61.1741 62.8448Z" fill="white"/>
<path d="M56.8522 67.0612L0.261719 76.6272L6.99572 36.1325L56.8522 67.0612Z" fill="white"/>
<path d="M59.4669 71.5672L27.5989 123.263L4.81479 90.3356L59.4669 71.5672Z" fill="white"/>
</svg>
